<?xml version="1.0" ?><svg id="Layer_1" style="enable-background:new 0 0 32 32;" version="1.1" viewBox="0 0 32 32" xml:space="preserve" xmlns="http://www.w3.org/2000/svg" xmlns:xlink="http://www.w3.org/1999/xlink"><g><g><path d="M25,26h-3c-0.5527344,0-1-0.4472656-1-1s0.4472656-1,1-1h3c2.7568359,0,5-2.2431641,5-5s-2.2431641-5-5-5h-1    c-0.5527344,0-1-0.4472656-1-1c0-3.859375-3.140625-7-7-7s-7,3.140625-7,7c0,0.5527344-0.4472656,1-1,1H7    c-2.7568359,0-5,2.2431641-5,5s2.2431641,5,5,5h3c0.5527344,0,1,0.4472656,1,1s-0.4472656,1-1,1H7c-3.859375,0-7-3.140625-7-7    s3.140625-7,7-7h0.0556641C7.5546875,7.5058594,11.375,4,16,4s8.4453125,3.5058594,8.9443359,8H25c3.859375,0,7,3.140625,7,7    S28.859375,26,25,26z"/></g><g><path d="M19,20c-0.2558594,0-0.5117188-0.0976563-0.7070313-0.2929688L16,17.4140625l-2.2929688,2.2929688    c-0.390625,0.390625-1.0234375,0.390625-1.4140625,0s-0.390625-1.0234375,0-1.4140625l3-3    c0.390625-0.390625,1.0234375-0.390625,1.4140625,0l3,3c0.390625,0.390625,0.390625,1.0234375,0,1.4140625    C19.5117188,19.9023438,19.2558594,20,19,20z"/></g><g><path d="M16,28c-0.5527344,0-1-0.4472656-1-1V16c0-0.5527344,0.4472656-1,1-1s1,0.4472656,1,1v11    C17,27.5527344,16.5527344,28,16,28z"/></g></g></svg>