<svg
        height="100%"
        style="fill-rule:evenodd;clip-rule:evenodd;stroke-linejoin:round;stroke-miterlimit:2;"
        version="1.1"
        viewBox="0 0 134 134"
        width="100%"
        xml:space="preserve"
        xmlns="http://www.w3.org/2000/svg"><path d="M81.335,29.035c-1.317,-0.304 -2.686,-0.464 -4.091,-0.464c-0.76,0 -1.51,0.047 -2.246,0.139c-4.279,-7.232 -12.021,-12.043 -20.831,-12.043c-8.811,-0 -16.553,4.811 -20.833,12.044c-0.735,-0.093 -1.484,-0.14 -2.244,-0.14c-10.224,0 -18.59,8.5 -18.59,19.048c-0,10.548 8.366,19.048 18.59,19.048c3.976,-0 7.667,-1.281 10.696,-3.47c3.63,2.206 7.864,3.47 12.381,3.47c4.517,-0 8.75,-1.264 12.382,-3.47c0.877,0.634 1.809,1.191 2.788,1.664c-8.943,10.178 -22.058,16.608 -36.662,16.608c-8.083,0 -15.709,-1.968 -22.422,-5.453c-1.613,-0.837 -3.581,-0.532 -4.866,0.752c-1.285,1.285 -1.589,3.254 -0.752,4.866c8.124,15.651 23.277,27.074 41.263,30.082c0.794,9.796 8.823,17.451 18.525,17.451c3.977,-0 7.667,-1.281 10.697,-3.47c3.63,2.206 7.863,3.47 12.38,3.47c4.517,-0 8.751,-1.264 12.382,-3.47c3.027,2.189 6.718,3.47 10.695,3.47c10.223,-0 18.59,-8.5 18.59,-19.048c-0,-10.548 -8.367,-19.048 -18.59,-19.048c-0.76,0 -1.51,0.047 -2.246,0.139c-1.232,-2.083 -2.751,-3.964 -4.499,-5.587c5.492,-8.776 8.668,-19.145 8.668,-30.25c-0,-22.063 -12.533,-41.222 -30.866,-50.738c-1.612,-0.837 -3.581,-0.533 -4.866,0.752c-1.284,1.285 -1.589,3.253 -0.752,4.866c2.957,5.696 4.822,12.05 5.319,18.782Zm-13.745,70.89c2.077,0.706 4.346,-0.321 5.187,-2.348c2.45,-5.902 8.11,-10.077 14.723,-10.077c6.613,0 12.273,4.175 14.723,10.077c0.841,2.027 3.11,3.054 5.187,2.348c0.997,-0.338 2.062,-0.52 3.167,-0.52c5.697,-0 10.256,4.836 10.256,10.714c0,5.878 -4.559,10.714 -10.256,10.714c-2.898,0 -5.51,-1.261 -7.368,-3.266c-1.505,-1.624 -4.017,-1.788 -5.72,-0.372c-2.734,2.272 -6.208,3.638 -9.989,3.638c-3.781,0 -7.255,-1.366 -9.989,-3.638c-1.703,-1.416 -4.215,-1.252 -5.72,0.372c-1.858,2.005 -4.47,3.266 -7.368,3.266c-5.697,0 -10.256,-4.836 -10.256,-10.714c-0,-5.878 4.559,-10.714 10.256,-10.714c1.105,-0 2.17,0.182 3.167,0.52Zm29.256,-18.85c4.641,-7.466 7.321,-16.274 7.321,-25.702c-0,-14.281 -6.149,-27.137 -15.938,-36.058c1.028,4.286 1.574,8.76 1.574,13.36c-0,31.53 -25.598,57.128 -57.128,57.128c-4.6,-0 -9.074,-0.546 -13.365,-1.576c7.144,7.836 16.803,13.339 27.695,15.224c2.645,-7.243 9.47,-12.38 17.418,-12.38c0.76,0 1.509,0.047 2.245,0.138c4.281,-7.232 12.022,-12.042 20.832,-12.042c3.308,-0 6.466,0.678 9.346,1.908Zm-15.637,-43.336l-0.001,-0.002c-1.218,-0.535 -2.558,-0.832 -3.964,-0.832c-1.106,-0 -2.17,0.182 -3.167,0.52c-2.078,0.706 -4.346,-0.321 -5.188,-2.348c-2.45,-5.902 -8.109,-10.077 -14.722,-10.077c-6.614,-0 -12.273,4.175 -14.723,10.077c-0.841,2.027 -3.11,3.054 -5.188,2.348c-0.997,-0.338 -2.061,-0.52 -3.166,-0.52c-5.698,-0 -10.257,4.836 -10.257,10.714c0,5.878 4.559,10.714 10.257,10.714c2.898,0 5.51,-1.261 7.368,-3.266c1.505,-1.624 4.017,-1.788 5.72,-0.372c2.733,2.272 6.207,3.638 9.989,3.638c3.781,0 7.255,-1.366 9.989,-3.638c1.702,-1.416 4.214,-1.252 5.719,0.372c1.232,1.329 2.794,2.332 4.552,2.857l0.001,-0.001l0.001,-0c3.641,-6.006 6.023,-12.855 6.78,-20.184Z"/></svg>