<svg width="18.000000" height="18.000000" viewBox="0 0 18 18" fill="none" xmlns="http://www.w3.org/2000/svg" xmlns:xlink="http://www.w3.org/1999/xlink">
	<desc>
			Created with Pixso.
	</desc>
	<defs>
		<clipPath id="clip9_2290">
			<rect width="18.000000" height="18.000000" fill="white" fill-opacity="0"/>
		</clipPath>
	</defs>
	<g clip-path="url(#clip9_2290)">
		<path d="M9 3.375C4.6123 3.375 1.125 6.86255 1.125 11.25L2.25 11.25C2.25 7.53748 5.2876 4.5 9 4.5C12.7124 4.5 15.75 7.53748 15.75 11.25L16.875 11.25C16.875 6.86255 13.3877 3.375 9 3.375ZM5.625 11.25C5.625 9.33752 7.0874 7.875 9 7.875C10.9126 7.875 12.375 9.33752 12.375 11.25C12.375 13.1625 10.9126 14.625 9 14.625C7.0874 14.625 5.625 13.1625 5.625 11.25ZM6.75 11.25C6.75 12.4875 7.7627 13.5 9 13.5C10.2373 13.5 11.25 12.4875 11.25 11.25C11.25 10.0125 10.2373 9 9 9C7.7627 9 6.75 10.0125 6.75 11.25Z" clip-rule="evenodd" fill="#FFFFFF" fill-opacity="1.000000" fill-rule="evenodd"/>
	</g>
</svg>
