<svg width="36" height="36" viewBox="0 0 36 36" fill="none" xmlns="http://www.w3.org/2000/svg" xmlns:xlink="http://www.w3.org/1999/xlink">
	<defs>
		<clipPath id="clip25_1006">
			<rect width="36.000000" height="36.000000" fill="white" fill-opacity="0"/>
		</clipPath>
	</defs>
	<g clip-path="url(#clip25_1006)">
		<path d="M19.125 2.25C22.0176 2.25 24.8451 3.10779 27.2502 4.71484C29.6553 6.32178 31.5298 8.60583 32.6367 11.2783C33.5188 13.4077 33.8818 15.7074 33.7075 17.9893C33.5165 20.4895 32.6852 22.9052 31.2853 25.0002C29.6782 27.4054 27.3942 29.2799 24.7217 30.3868C22.0494 31.4937 19.1088 31.7834 16.2719 31.219C13.4348 30.6545 10.8289 29.2618 8.78357 27.2164C6.73816 25.171 5.34534 22.5651 4.78101 19.7281C4.21667 16.8912 4.50635 13.9507 5.61328 11.2783C6.72021 8.60583 8.59473 6.32178 10.9998 4.71484C13.4049 3.10779 16.2324 2.25 19.125 2.25ZM30.1365 11.25C28.6935 8.44385 26.2378 6.29163 23.2677 5.22839C24.2651 7.11804 24.9885 9.14551 25.4115 11.25L30.1365 11.25ZM31.4471 17.9893C31.4816 17.6193 31.4993 17.2474 31.5 16.875C31.4977 15.7333 31.3364 14.5973 31.0208 13.5L25.7512 13.5C25.8232 14.2449 25.875 14.9941 25.875 15.75C25.8744 16.0334 25.8684 16.3169 25.8572 16.5999C25.8564 16.619 25.8557 16.6368 25.8549 16.6561C25.8376 17.0615 25.8094 17.4674 25.7705 17.8708C25.6934 18.6693 25.5736 19.4634 25.4115 20.25L31.0208 20.25C31.2335 19.5106 31.3761 18.7537 31.4471 17.9893ZM23.4918 17.9893C23.4962 17.9508 23.5006 17.9124 23.5048 17.8739C23.5819 17.1692 23.6221 16.4602 23.625 15.75C23.61 14.9974 23.5529 14.2462 23.454 13.5L14.796 13.5C14.6971 14.2462 14.64 14.9974 14.625 15.75C14.6312 17.265 14.807 18.7743 15.1493 20.25L23.1007 20.25C23.2738 19.5038 23.4043 18.749 23.4918 17.9893ZM23.0602 11.25C22.8616 10.3579 22.6046 9.48145 22.2885 8.62756C21.7601 7.20435 21.0724 5.84204 20.2365 4.56763C19.8676 4.53601 19.4985 4.5 19.125 4.5C18.8899 4.5 18.6566 4.51428 18.424 4.53271C18.287 4.54346 18.1503 4.55579 18.0134 4.56763L18 4.58813C16.6699 6.6217 15.7179 8.87805 15.1898 11.25L23.0602 11.25ZM12.8385 11.25C13.27 9.14551 14.0021 7.11389 15.012 5.21765C12.0284 6.2771 9.56128 8.43445 8.11353 11.25L12.8385 11.25ZM7.22925 13.5C6.91357 14.5973 6.75232 15.7333 6.75 16.875C6.75232 18.0167 6.91357 19.1527 7.22925 20.25L12.8385 20.25C12.5334 18.7693 12.3782 17.2617 12.375 15.75C12.375 14.9941 12.4268 14.2449 12.4988 13.5L7.22925 13.5ZM13.4258 22.5L8.11572 22.5C8.96631 24.1614 10.1807 25.6094 11.6683 26.7366C13.1561 27.8635 14.8789 28.6403 16.7085 29.0094C15.2684 27.0319 14.1597 24.8335 13.4258 22.5ZM19.125 28.4491C20.5637 26.6696 21.6884 24.6577 22.4504 22.5L15.7996 22.5C16.5616 24.6577 17.6863 26.6696 19.125 28.4491ZM24.8242 22.5C24.0903 24.8335 22.9816 27.0319 21.5415 29.0094C23.3711 28.6403 25.0939 27.8635 26.5817 26.7366C28.0693 25.6094 29.2837 24.1614 30.1343 22.5L24.8242 22.5Z" fill="#FFFFFF" fill-opacity="1.000000" fill-rule="evenodd"/>
	</g>
</svg>
