<svg
        height="100%"
        style="fill-rule:evenodd;clip-rule:evenodd;stroke-linejoin:round;stroke-miterlimit:2;"
        version="1.1"
        viewBox="0 0 134 134"
        width="100%"
        xml:space="preserve"
        xmlns="http://www.w3.org/2000/svg"
>
    <path d="M62.5,112.5l0,12.5c-0,2.3 1.867,4.167 4.167,4.167c2.299,-0 4.166,-1.867 4.166,-4.167l0,-12.5c0,-2.3 -1.867,-4.167 -4.166,-4.167c-2.3,0 -4.167,1.867 -4.167,4.167Zm48.361,-7.532l-8.839,-8.839c-1.626,-1.626 -4.266,-1.626 -5.893,0c-1.626,1.627 -1.626,4.267 0,5.893l8.839,8.839c1.626,1.626 4.267,1.626 5.893,-0c1.626,-1.626 1.626,-4.267 -0,-5.893Zm-79.55,-8.839l-8.839,8.839c-1.626,1.626 -1.626,4.267 0,5.893c1.627,1.626 4.267,1.626 5.893,-0l8.839,-8.839c1.626,-1.626 1.626,-4.266 -0,-5.893c-1.626,-1.626 -4.267,-1.626 -5.893,0Zm35.356,-62.796c-18.398,0 -33.334,14.936 -33.334,33.334c0,18.397 14.936,33.333 33.334,33.333c18.397,0 33.333,-14.936 33.333,-33.333c0,-18.398 -14.936,-33.334 -33.333,-33.334Zm-0,8.334c13.798,-0 25,11.202 25,25c-0,13.798 -11.202,25 -25,25c-13.798,-0 -25,-11.202 -25,-25c-0,-13.798 11.202,-25 25,-25Zm58.333,20.833l-12.5,0c-2.3,0 -4.167,1.867 -4.167,4.167c0,2.299 1.867,4.166 4.167,4.166l12.5,0c2.3,0 4.167,-1.867 4.167,-4.166c-0,-2.3 -1.867,-4.167 -4.167,-4.167Zm-104.167,0l-12.5,0c-2.299,0 -4.166,1.867 -4.166,4.167c-0,2.299 1.867,4.166 4.166,4.166l12.5,0c2.3,0 4.167,-1.867 4.167,-4.166c0,-2.3 -1.867,-4.167 -4.167,-4.167Zm84.135,-40.028l-8.839,8.839c-1.626,1.626 -1.626,4.267 0,5.893c1.627,1.626 4.267,1.626 5.893,-0l8.839,-8.839c1.626,-1.626 1.626,-4.266 -0,-5.893c-1.626,-1.626 -4.267,-1.626 -5.893,0Zm-67.764,8.839l-8.839,-8.839c-1.626,-1.626 -4.266,-1.626 -5.893,0c-1.626,1.627 -1.626,4.267 0,5.893l8.839,8.839c1.626,1.626 4.267,1.626 5.893,-0c1.626,-1.626 1.626,-4.267 -0,-5.893Zm25.296,-22.978l0,12.5c-0,2.3 1.867,4.167 4.167,4.167c2.299,0 4.166,-1.867 4.166,-4.167l0,-12.5c0,-2.299 -1.867,-4.166 -4.166,-4.166c-2.3,-0 -4.167,1.867 -4.167,4.166Z"/></svg>