<svg width="16.000000" height="16.000000" viewBox="0 0 16 16" fill="none" xmlns="http://www.w3.org/2000/svg" xmlns:xlink="http://www.w3.org/1999/xlink">
	<desc>
			Created with Pixso.
	</desc>
	<defs>
		<clipPath id="clip9_328">
			<rect width="16.000000" height="16.000000" fill="white" fill-opacity="0"/>
		</clipPath>
	</defs>
	<g clip-path="url(#clip9_328)">
		<path d="M14.5405 11.8111L13.4004 8.69097L13.4004 8.63103L8.49072 3.721L8.49072 2.48101C8.48877 2.28265 8.45166 2.08626 8.38037 1.90105C8.30273 1.71896 8.18945 1.55434 8.04688 1.41692C7.9043 1.2795 7.73535 1.17204 7.55078 1.10101C7.36621 1.02753 7.16895 0.993492 6.9707 1.00103C6.7749 0.996864 6.58057 1.03435 6.40039 1.11102C6.22119 1.18491 6.05762 1.29365 5.92041 1.43096C5.7832 1.56827 5.67432 1.73148 5.60059 1.91106C5.52393 2.09111 5.48633 2.28535 5.49072 2.48101L5.49072 5.74102L2.43066 8.74102C2.1543 9.02478 2 9.40514 2 9.80107C2 10.197 2.1543 10.5772 2.43066 10.861L6.06055 14.491C6.20068 14.6322 6.36719 14.7443 6.55078 14.821C6.9165 14.9678 7.32471 14.9678 7.69043 14.821C7.87402 14.7443 8.04053 14.6322 8.18066 14.491L13.1104 9.57097L12.4507 11.771C12.4209 11.9229 12.4209 12.0791 12.4507 12.231C12.4829 12.3831 12.5474 12.5265 12.6406 12.651C12.7373 12.772 12.8564 12.8737 12.9907 12.951C13.1309 13.021 13.2842 13.0618 13.4404 13.071C13.6055 13.0811 13.7705 13.0502 13.9204 12.981C14.0698 12.9135 14.2031 12.8145 14.3105 12.691C14.4194 12.5649 14.4951 12.4137 14.5308 12.251C14.562 12.1063 14.5654 11.957 14.5405 11.8111ZM6.54053 2.48101C6.52588 2.41515 6.52588 2.34692 6.54053 2.28106C6.56885 2.21688 6.60938 2.15901 6.66064 2.11102C6.71484 2.06818 6.77539 2.03444 6.84082 2.01104C6.90967 1.99617 6.98145 1.99617 7.05078 2.01104C7.17188 2.02042 7.28564 2.07378 7.37061 2.16106C7.44922 2.25294 7.4917 2.37012 7.49072 2.49102L7.49072 3.75103L6.49072 4.75103L6.54053 2.48101ZM7.54053 13.831C7.49854 13.8816 7.44287 13.9196 7.38086 13.941C7.3208 13.9674 7.25586 13.9811 7.19043 13.9811C7.125 13.9811 7.06055 13.9674 7.00049 13.941C6.93799 13.9196 6.88281 13.8816 6.84082 13.831L3.21045 10.211C3.16504 10.1643 3.12793 10.1103 3.10059 10.0511C3.07422 9.98938 3.06104 9.923 3.06104 9.856C3.06104 9.78901 3.07422 9.72275 3.10059 9.66106C3.12793 9.60183 3.16504 9.54768 3.21045 9.50102L7.56055 5.15105L7.56055 8.00103C7.48438 8.07086 7.42383 8.15593 7.38232 8.25066C7.34082 8.34539 7.31982 8.44772 7.3208 8.55108C7.30859 8.68269 7.33105 8.81515 7.38672 8.93511C7.44238 9.05507 7.52832 9.15826 7.63672 9.23418C7.74463 9.3101 7.87109 9.3561 8.00293 9.36748C8.13428 9.37886 8.26709 9.35523 8.38672 9.299C8.50586 9.24277 8.60889 9.15595 8.68408 9.04729C8.75928 8.93863 8.8042 8.81198 8.81494 8.68022C8.82568 8.54848 8.80127 8.41619 8.74414 8.29693C8.68701 8.17766 8.59961 8.07561 8.49072 8.00103L8.49072 5.17107L12.3408 9.04106L7.54053 13.831Z" fill="#C5C5C5" fill-opacity="1.000000" fill-rule="evenodd"/>
	</g>
</svg>
