<svg width="26.000000" height="26.000000" viewBox="0 0 26 26" fill="none" xmlns="http://www.w3.org/2000/svg" xmlns:xlink="http://www.w3.org/1999/xlink">
	<defs>
		<clipPath id="clip49_1277">
			<rect rx="12.500000" width="25.000000" height="25.000002" transform="translate(0.500000 0.500000)" fill="white" fill-opacity="0"/>
		</clipPath>
	</defs>
	<rect rx="12.500000" width="25.000000" height="25.000002" transform="translate(0.500000 0.500000)" fill="none" fill-opacity="1.000000"/>
	<g clip-path="url(#clip49_1277)">
		<path d="M6.92346 3.90576C8.72217 2.7041 10.8368 2.0625 13 2.0625C15.9008 2.0625 18.6829 3.21484 20.734 5.26611C22.7852 7.31738 23.9375 10.0991 23.9375 13C23.9375 15.1631 23.296 17.2778 22.0942 19.0767C20.8923 20.8755 19.1841 22.2773 17.1855 23.105C15.187 23.9326 12.9878 24.1494 10.8661 23.7275C8.74451 23.3052 6.79565 22.2637 5.26599 20.7339C3.73633 19.2041 2.6947 17.2554 2.27271 15.1338C1.85071 13.0122 2.06726 10.813 2.89502 8.81445C3.7229 6.81592 5.12476 5.10742 6.92346 3.90576ZM7.7915 20.7949C9.33325 21.8252 11.1458 22.375 13 22.375C15.4863 22.375 17.871 21.3872 19.629 19.6294C21.3872 17.8711 22.375 15.4863 22.375 13C22.375 11.146 21.8252 9.3335 20.795 7.7915C19.7649 6.25 18.3007 5.04834 16.5876 4.33838C14.8745 3.62891 12.9896 3.44336 11.171 3.80518C9.35242 4.16699 7.68201 5.05957 6.37085 6.37061C5.05981 7.68213 4.16687 9.35254 3.80518 11.1709C3.44336 12.9897 3.62903 14.8745 4.33862 16.5879C5.04822 18.3008 6.24976 19.7646 7.7915 20.7949ZM9.09375 13C9.95667 13 10.6562 12.3003 10.6562 11.4375C10.6562 10.5747 9.95667 9.875 9.09375 9.875C8.23083 9.875 7.53125 10.5747 7.53125 11.4375C7.53125 12.3003 8.23083 13 9.09375 13ZM16.9062 13C17.7692 13 18.4688 12.3003 18.4688 11.4375C18.4688 10.5747 17.7692 9.875 16.9062 9.875C16.0433 9.875 15.3438 10.5747 15.3438 11.4375C15.3438 12.3003 16.0433 13 16.9062 13ZM13.0002 17.6885C12.1512 17.6904 11.3175 17.4619 10.5883 17.0269C9.85901 16.5923 9.26147 15.9673 8.85962 15.2197L7.50024 15.9697C8.04736 16.9819 8.8634 17.8237 9.8584 18.4019C10.8534 18.9805 11.9886 19.2725 13.1392 19.2466C14.2898 19.2207 15.4109 18.8779 16.3789 18.2554C17.3469 17.6333 18.1241 16.7554 18.6252 15.7197L17.219 15.0479C16.8347 15.8394 16.2351 16.5073 15.489 16.9741C14.743 17.4409 13.8805 17.6885 13.0002 17.6885Z" clip-rule="evenodd" fill="#FFFFFF" fill-opacity="1.000000" fill-rule="evenodd"/>
	</g>
</svg>
