<svg width="16.000000" height="16.000000" viewBox="0 0 16 16" fill="none" xmlns="http://www.w3.org/2000/svg" xmlns:xlink="http://www.w3.org/1999/xlink">
	<desc>
			Created with Pixso.
	</desc>
	<defs>
		<clipPath id="clip1_9065">
			<rect width="16.000000" height="16.000000" fill="white" fill-opacity="0"/>
		</clipPath>
	</defs>
	<g clip-path="url(#clip1_9065)">
		<path d="M12.76 3.04996C11.6436 1.90518 10.1595 1.19039 8.56838 1.03128C6.97729 0.872169 5.38101 1.27892 4.06002 2.17996C2.72797 3.0868 1.7496 4.42537 1.29003 5.96988C0.82947 7.52043 0.910599 9.18166 1.52004 10.68C2.12677 12.1706 3.22861 13.4066 4.64004 14.18C6.04844 14.9369 7.67727 15.1772 9.24429 14.8594C10.8113 14.5416 12.2178 13.6857 13.2201 12.4398C14.3098 11.0913 14.8651 9.38899 14.7803 7.65725C14.6955 5.92552 13.9763 4.28555 12.76 3.04996ZM12.45 11.81C11.5887 12.8756 10.3829 13.6075 9.04006 13.8799C7.7058 14.1519 6.31834 13.9467 5.12002 13.3C4.2177 12.7997 3.45807 12.0773 2.91305 11.2013C2.36803 10.3253 2.05568 9.3246 2.00561 8.2941C1.95553 7.26359 2.16939 6.23738 2.62691 5.31265C3.08444 4.38792 3.77045 3.59531 4.62002 3.00992C5.74869 2.24247 7.11117 1.89613 8.46932 2.0314C9.82747 2.16667 11.0949 2.77492 12.05 3.74991C13.0928 4.81093 13.7097 6.21792 13.7834 7.70376C13.8571 9.18961 13.3826 10.6509 12.45 11.81ZM8.625 7L8.625 11L7.375 11L7.375 7L8.625 7ZM7.375 6L8.625 6L8.625 5L7.375 5L7.375 6Z" clip-rule="evenodd" fill="#75BEFF" fill-opacity="1.000000" fill-rule="evenodd"/>
	</g>
</svg>
